<?xml version="1.0" standalone="no"?>
<!DOCTYPE svg PUBLIC "-//W3C//DTD SVG 20010904//EN"
 "http://www.w3.org/TR/2001/REC-SVG-20010904/DTD/svg10.dtd">
<svg version="1.0" xmlns="http://www.w3.org/2000/svg"
 width="228.000000pt" height="228.000000pt" viewBox="0 0 228.000000 228.000000"
 preserveAspectRatio="xMidYMid meet">
<metadata>
Created by potrace 1.11, written by Peter Selinger 2001-2013
</metadata>
<g transform="translate(0.000000,228.000000) scale(0.100000,-0.100000)"
fill="#000000" stroke="none">
<path d="M555 2265 c-112 -23 -176 -52 -264 -117 -218 -163 -318 -434 -274
-746 12 -91 48 -227 79 -302 184 -441 486 -774 938 -1035 97 -56 114 -62 131
-46 6 4 42 25 80 46 291 156 590 431 768 705 230 355 314 732 226 1016 -153
496 -733 652 -1072 289 -28 -30 -28 -30 -45 -10 -36 43 -130 114 -187 143
-116 59 -263 81 -380 57z"/>
</g>
</svg>
